<svg width="1920" height="1080" viewBox="0 0 1920 1080" fill="none" xmlns="http://www.w3.org/2000/svg">
<rect width="1920" height="1080" fill="#383C4A"/>
<g style="mix-blend-mode:overlay" clip-path="url(#clip0_1_18)">
<path d="M991.123 550.812C984.516 550.904 992.373 554.219 1001 555.547C1003.38 553.685 1005.54 551.802 1007.47 549.969C1002.1 551.287 996.63 551.316 991.123 550.812Z" fill="white"/>
<path d="M1026.58 541.967C1030.52 536.533 1033.38 530.583 1034.39 524.431C1033.51 528.817 1031.13 532.603 1028.89 536.599C1016.55 544.381 1027.73 531.978 1028.89 527.265C1015.61 543.991 1027.06 537.294 1026.58 541.967Z" fill="white"/>
<path d="M1039.67 507.882C1040.47 495.976 1037.33 499.74 1036.27 504.284C1037.5 504.924 1038.48 512.676 1039.67 507.882Z" fill="white"/>
<path d="M966.072 345.147C969.597 345.78 973.689 346.266 973.116 347.108C976.972 346.262 977.847 345.482 966.072 345.147Z" fill="white"/>
<path d="M973.116 347.108L970.623 347.623L972.943 347.417L973.116 347.108Z" fill="white"/>
<path d="M1083.06 512.397C1083.45 523.089 1079.93 528.276 1076.76 537.46L1071.05 540.315C1066.38 549.395 1071.5 546.08 1068.16 553.303C1060.86 559.793 1046.02 573.613 1041.27 574.874C1037.8 574.797 1043.62 570.779 1044.38 569.205C1034.61 575.916 1036.55 579.279 1021.61 583.355L1021.17 582.384C984.343 599.724 933.182 565.36 933.855 518.471C933.462 521.448 932.737 520.704 931.921 521.908C930.021 497.782 943.053 473.551 965.035 463.657C986.535 453.006 1011.74 457.377 1027.14 471.74C1018.68 460.651 1001.84 448.896 981.888 449.996C962.34 450.305 944.053 462.737 937.951 476.233C927.936 482.543 926.774 500.557 922.41 503.853C916.539 547.037 933.454 565.695 962.068 587.642C966.572 590.681 963.336 591.141 963.947 593.455C954.439 588.999 945.734 582.274 938.576 574.039C942.373 579.602 946.473 585.011 951.77 589.26C942.807 586.221 930.833 567.523 927.337 566.762C942.789 594.448 990.027 615.317 1014.76 604.964C1003.32 605.387 988.777 605.199 975.917 600.442C970.516 597.66 963.171 591.899 964.483 590.82C998.24 603.44 1033.11 600.379 1062.32 576.946C1069.75 571.155 1077.87 561.302 1080.21 561.165C1076.68 566.482 1080.82 563.723 1078.1 568.417C1085.51 556.467 1074.89 563.553 1085.76 547.78L1089.77 553.314C1088.28 543.395 1102.08 531.349 1100.68 515.66C1103.85 510.862 1104.21 520.822 1100.85 531.86C1105.51 519.615 1102.08 517.647 1103.28 507.544C1104.57 510.94 1106.27 514.549 1107.14 518.133C1104.11 506.3 1110.26 498.206 1111.78 491.329C1110.28 490.663 1107.1 496.561 1106.37 482.583C1106.47 476.512 1108.06 479.401 1108.67 477.907C1107.47 477.223 1104.35 472.568 1102.45 463.642C1103.83 461.545 1106.13 469.08 1108.01 469.389C1106.8 462.292 1104.72 456.88 1104.64 451.434C1099.16 439.977 1102.7 452.961 1098.26 446.515C1092.43 428.314 1103.1 442.291 1103.82 434.02C1112.65 446.835 1117.69 466.696 1120.01 474.923C1118.24 464.893 1115.39 455.176 1111.91 445.776C1114.59 446.905 1107.58 425.139 1115.4 439.554C1107.05 408.825 1079.68 380.112 1054.5 366.638C1057.58 369.46 1061.47 373.003 1060.07 373.559C1047.55 366.097 1049.75 365.516 1047.96 362.363C1037.76 358.209 1037.09 362.698 1030.33 362.37C1011.1 352.164 1007.4 353.249 989.704 346.855L990.509 350.618C977.77 346.373 975.667 352.23 961.899 350.633C961.061 349.978 966.311 348.264 970.63 347.635C958.314 349.261 958.892 345.206 946.84 348.083C949.811 345.997 952.95 344.618 956.12 342.844C946.076 343.455 932.142 348.694 936.443 343.929C920.061 351.244 890.966 361.513 874.639 376.833L874.124 373.401C866.643 382.389 841.5 400.245 839.496 411.886L837.496 412.353C833.603 418.95 831.084 426.426 827.996 433.215C822.904 441.898 820.533 436.555 821.257 437.917C811.243 458.237 806.268 475.313 801.971 489.316C805.033 493.897 802.044 516.893 803.202 535.296C798.173 626.189 866.944 714.441 942.116 734.817C953.134 738.761 969.52 738.61 983.457 739.015C967.013 734.309 964.888 736.52 948.87 730.931C937.315 725.486 934.782 719.268 926.598 712.16L929.837 717.888C913.785 712.204 920.502 710.853 907.444 706.714L910.903 702.192C905.701 701.799 897.124 693.417 894.778 688.778L889.087 689.002C882.249 680.558 878.606 674.473 878.87 669.76L877.032 673.038C874.948 669.458 851.874 641.37 863.845 647.908C861.621 645.874 858.665 644.597 855.459 638.769L857.896 635.98C852.135 628.563 847.294 619.055 847.661 615.887C850.735 620.041 852.867 620.818 854.977 621.528C840.43 585.405 839.614 619.537 828.595 584.757L830.926 584.569C829.139 581.876 828.055 578.951 826.617 576.081L827.632 565.963C817.158 553.844 824.702 514.431 826.213 492.815C827.261 484.026 834.955 474.669 840.808 459.996L837.242 459.382C844.058 447.483 876.161 411.595 891.028 413.442C898.23 404.387 889.598 413.409 888.19 411.128C904.01 394.744 908.984 399.553 919.66 396.606C931.175 389.766 909.778 399.273 915.238 393.997C935.142 388.909 929.344 382.43 955.311 379.847C958.05 381.407 948.954 382.257 946.671 384.28C963.255 376.16 999.152 378.007 1022.47 388.787C1049.52 401.44 1079.92 438.844 1081.12 474.036L1082.48 474.404C1081.79 488.393 1084.62 504.571 1079.72 519.431L1083.06 512.397Z" fill="white"/>
<path d="M919.013 559.889L918.087 564.525C922.429 570.426 925.874 576.821 931.418 581.435C927.429 573.642 924.465 570.423 919.013 559.889Z" fill="white"/>
<path d="M929.278 559.484C926.98 556.942 925.62 553.88 924.098 550.83C925.554 556.191 928.535 560.798 931.311 565.481L929.278 559.484Z" fill="white"/>
<path d="M1110.91 519.976L1109.94 522.412C1108.16 535.061 1104.32 547.578 1098.43 559.182C1104.93 546.938 1109.14 533.545 1110.91 519.976Z" fill="white"/>
<path d="M967.377 341.976C971.844 340.338 978.358 341.078 983.097 340C976.921 340.519 970.774 340.828 964.704 341.612L967.377 341.976Z" fill="white"/>
<path d="M810.559 425.429C811.588 434.966 803.39 438.667 812.375 432.379C817.191 421.522 810.493 429.381 810.559 425.429Z" fill="white"/>
<path d="M800 469.566C802.07 463.208 802.445 459.389 803.235 455.71C797.515 463.028 800.603 464.588 800 469.566Z" fill="white"/>
</g>
<defs>
<clipPath id="clip0_1_18">
<rect width="320" height="399" fill="white" transform="translate(800 340)"/>
</clipPath>
</defs>
</svg>
